<svg xmlns="http://www.w3.org/2000/svg" xmlns:svg="http://www.w3.org/2000/svg" id="svg4265" x="0" y="0" enable-background="new 0 0 74.6 86.2" version="1.1" viewBox="0 0 74.6 86.2" xml:space="preserve"><metadata id="metadata4299"/><g id="layer4" style="display:inline"><g id="g4243" style="fill:#fff;fill-opacity:1;stroke:#000;stroke-width:.1;stroke-miterlimit:4;stroke-dasharray:none;stroke-opacity:1"><path id="path4217" d="m 71.122958,58.345514 -32.432097,18.72468 -32.4320974,-18.72468 2e-7,-37.44936 L 38.690861,2.1714745 71.122958,20.896155 Z" transform="matrix(0.96689595,0,0,0.96371357,1.2808245,0.34891313)" style="opacity:1;fill:#fff;fill-opacity:1;stroke:#000;stroke-width:.10359437;stroke-miterlimit:4;stroke-dasharray:none;stroke-opacity:1"/></g></g><g id="layer5" style="display:inline"><path style="display:inline;opacity:1;fill:#6f6f6f;fill-opacity:1;stroke:none;stroke-width:2;stroke-linecap:round;stroke-linejoin:round;stroke-miterlimit:4;stroke-dasharray:none;stroke-opacity:1" id="path6020" d="m 56.298438,57.83914 c -3.657103,-1.277893 -7.788441,-5.703897 -10.39712,-11.138696 -1.569115,-3.269019 -2.123849,-5.21991 -3.706351,-13.034501 -0.525491,-2.594939 -1.124034,-5.338679 -1.330096,-6.0972 -1.283053,-4.722972 -3.17725,-8.667925 -5.611258,-11.6863 -1.1373,-1.410348 -3.739873,-3.959543 -5.053157,-4.94952 l -0.96241,-0.72548 2.761302,-1.5902286 c 1.518716,-0.8746256 2.841382,-1.6096812 2.939258,-1.633457 0.364669,-0.088584 3.133827,3.2928056 4.483604,5.4748816 1.00912,1.631362 1.435919,2.483637 2.216966,4.427059 1.490783,3.709401 1.984648,6.636288 2.586445,15.328531 0.3843,5.550764 1.109193,10.270581 1.691941,11.016313 0.1488,0.190417 0.271916,0.451726 0.273591,0.580686 0.01183,0.910849 1.52253,4.8091 2.280299,5.884155 0.525964,0.74619 2.567971,2.310297 3.345845,2.562804 0.859279,0.27893 2.605276,1.554008 3.968339,2.898024 1.331894,1.313283 1.869586,2.048142 1.870471,2.556364 8.71e-4,0.468778 -0.298468,0.496678 -1.357669,0.126565 z"/><path style="display:inline;opacity:1;fill:#6f6f6f;fill-opacity:1;stroke:none;stroke-width:2;stroke-linecap:round;stroke-linejoin:round;stroke-miterlimit:4;stroke-dasharray:none;stroke-opacity:1" id="path6022" d="M 55.843157,61.960377 C 49.150255,58.572762 44.134707,52.869775 41.300807,45.424829 40.951292,44.506619 39.944289,41.48093 39.063021,38.701076 36.484473,30.567358 35.218613,27.747821 32.529445,24.148403 29.843681,20.553542 26.585277,17.806986 22.714261,15.875042 l -1.770717,-0.883728 1.827415,-1.044785 1.827415,-1.044785 0.814331,0.458793 c 5.19327,2.925876 9.675826,7.918392 12.204107,13.592513 1.025498,2.301485 1.781123,4.56039 3.071064,9.180807 1.298629,4.651543 1.805661,6.262506 2.616702,8.313901 2.155717,5.45254 5.580346,10.087253 9.561415,12.939918 2.620318,1.877606 5.058638,2.944258 7.080578,3.097424 l 1.055966,0.07999 -1.128551,0.642695 c -0.620703,0.35348 -1.458227,0.831077 -1.861165,1.061325 l -0.732613,0.41863 -1.437051,-0.727362 z"/><g id="g4393"><path style="display:inline;fill:#6f6f6f;fill-opacity:1" id="path6078" d="m 32.169114,39.927981 c 0,-0.5 -0.03668,-0.473364 -0.536682,-0.673364 -4.5,-2 -9.1,-4 -13.4,-6.5 -3.5,-2 -7,-4.2 -9.9999998,-7 -1.1,-1.1 -2.2,-2.3 -3.2,-3.4 -0.3,-0.4 -0.3,-0.5 0.1,-0.7 1.4,-0.8 2.7,-1.6 4.1,-2.4 0.2,-0.1 0.5,-0.3 0.6,0.1 0.9999998,2.4 2.7999998,4.2 4.6999998,5.8 3.4,3 7.3,5.3 11.3,7.4 1.7,0.9 3.5,1.7 5.2,2.6 0.4,0.1 0.77964,0.27964 1.07964,0.37964 z"/><path style="display:inline;fill:#6f6f6f;fill-opacity:1" id="path4307" d="m 30.332432,47.954617 0.6,-1.5 c 0.2,-0.6 0.2,-0.6 -0.3,-0.8 -1.8,-0.6 -3.5,-1.3 -5.3,-1.9 -5.2,-1.9 -10.3,-3.9 -15.3,-6.2 -1.6999998,-0.8 -3.2999998,-1.6 -4.9999998,-2.5 -0.5,-0.1 -0.6,-0.3 -0.6,-0.8 l 0,-4.9 c 0,-0.2 0,-0.3 0.1,-0.6 0.2,0.1 0.3,0.1 0.4,0.2 4.4,3.3 9.0999998,5.9 13.9999998,8.1 4.1,1.9 8.3,3.6 12.5,5.4 0.6,0.3 0.7,0.3 0.6,1 -0.4,2.7 -1.2,5.2 -2,7.8 -1,3.2 -1.9,6.4 -2.8,9.7 -0.7,2.5 -0.9,5.1 -0.9,7.8 0,0.2 -0.1,0.4 -0.1,0.6 -0.2,-0.1 -0.4,-0.1 -0.6,-0.2 -1.4,-0.8 -2.8,-1.7 -4.2,-2.5 -0.5,-0.3 -0.6,-0.4 -0.3,-1 1.9,-4.2 4.4,-8.2 6.6,-12.3 0.4,-0.7 0.7,-1.4 1.1,-2.2 z"/><path style="display:inline;fill:#6f6f6f;fill-opacity:1" id="path6102" d="m 52.832432,21.754617 c 1.2,-0.1 2.3,-0.2 3.4,-0.3 2.4,-0.2 4.7,-0.4 7.1,-0.6 2.1,-0.2 4.2,-0.3 6.2,-0.4 0.4,0 0.9,0.1 1.3,0.2 0.2,0.1 0.3,0.3 0.3,0.5 l 0,2.2 c 0,0.4 -0.2,0.5 -0.5,0.5 -2.2,-0.1 -4.4,-0.3 -6.6,-0.3 -4,-0.2 -7.9,-0.3 -11.9,-0.5 -0.3,0 0.01815,0.03629 -0.646022,-0.05237 z"/><path style="display:inline;fill:#6f6f6f;fill-opacity:1" id="path6106" d="m 50.632432,24.454617 1.5,0.2 c 4.3,0.6 8.6,1.2 12.9,1.9 1.9,0.3 3.7,0.6 5.6,0.9 0.3,0.1 0.5,0.2 0.5,0.6 l 0,3.2 c 0,0.8 0,0.8 -0.8,0.6 -2.6,-0.7 -5.2,-1.4 -7.8,-2 -4.1,-1 -8.2,-1.964157 -12.2,-2.964157 -0.3,-0.1 0,0 -1.064157,-0.238495 z"/><path style="display:inline;fill:#6f6f6f;fill-opacity:1" id="path4313" d="m 56.332432,19.854617 c 0.4,-0.1 0.8,-0.3 1.1,-0.4 1.9,-0.7 3.9,-1.5 5.8,-2.2 0.5,-0.2 1,-0.2 1.5,0.1 0.5,0.3 1,0.5 1.4,0.8 0.1,0.1 0.3,0.2 0.4,0.3 0.1,-0.1 0.1,0 0,0 -4.2,0.9 -8.4,1.8 -12.7,2.8 0,-0.1 -0.1,-0.1 -0.1,-0.2 z"/><path id="path4303" d="m 46.032432,43.254617 c 0,-0.3 -0.1,-0.6 -0.1,-0.9 0,-0.5 0.1,-0.6 0.6,-0.4 0.8,0.4 1.5,0.7 2.3,1.1 4.5,2.2 9,4.6 13,7.7 2.1,1.6 4,3.3 5.4,5.4 0.5,0.7 0.8,1.5 1.3,2.3 0.2,0.3 0.1,0.5 -0.2,0.7 -2.5,1.4 -5,2.9 -7.5,4.3 -0.4,0.2 -0.8,0.2 -1.3,0.1 -3.2,-1 -6,-2.6 -8.6,-4.6 -4.7,-3.7 -7.9,-8.5 -9.9,-14 -1.1,-3.1 -2,-6.2 -3,-9.3 -1.3,-4.1 -2.9,-8 -5.5,-11.4 -3,-4 -6.7,-7.1 -11.3,-9 -0.8,-0.4 -1.7,-0.7 -2.6,-1 -0.1,0 -0.1,-0.1 -0.3,-0.1 0.2,-0.1 0.3,-0.2 0.5,-0.3 1,-0.6 2.1,-1.2 3.1,-1.8 0.4,-0.3 0.8,-0.3 1.2,0 7.3,3.5 12.5,9.2 15.4,16.9 1.2,3.1 2,6.4 2.9,9.6 1,3.6 2.2,7.2 4.1,10.4 2.3,4 5.4,7.4 9.4,9.7 1.5,0.9 3.1,1.6 4.9,1.8 0.6,0.1 1.2,0 1.9,-0.1 0.6,-0.1 0.9,-0.6 0.9,-1.3 0,-0.7 -0.2,-1.3 -0.5,-1.8 -1,-1.7 -2.4,-3 -3.9,-4.3 -3.2,-2.6 -6.7,-4.6 -10.4,-6.5 -0.3,-0.2 -0.6,-0.3 -1,-0.4 0.1,0.3 0.3,0.6 0.4,1 0.2,0.4 0.4,0.9 0.6,1.4 0.5,1.3 1.4,2.2 2.6,2.8 1.9,1 3.7,2.2 5.2,3.6 0.7,0.6 1.2,1.3 1.8,2 0.1,0.1 0.2,0.4 0.3,0.5 0.2,0.5 -0.1,1 -0.7,0.8 -0.7,-0.2 -1.3,-0.4 -1.9,-0.7 -2.5,-1.3 -4.4,-3.3 -6.1,-5.5 -2.8,-3.6 -4.6,-7.7 -5.6,-12.1 -0.8,-3.4 -1.4,-6.8 -2.1,-10.1 -0.8,-3.7 -2,-7.3 -3.9,-10.6 -2.3,-3.9 -5.4,-7 -9.1,-9.5000004 -0.3,-0.2 -0.6,-0.4 -0.9,-0.6 -0.3,-0.2 -0.3,-0.3 0,-0.6 1.5,-0.9 2.9,-1.7 4.4,-2.6 0.1,0 0.1,-0.1 0.2,-0.1 1.3,-0.8 1.2,-0.7 2.1,0.2 5.2,4.8000004 8.4,10.7000004 9.4,17.8000004 0.4,3 0.6,6.1 0.8,9.2 0.2,3.3 0.6,6.7 1.4,9.9 0.1,0.2 0.2,0.3 0.3,0.4 -0.1,0 -0.1,0 0,0 z" style="display:inline;fill:#6f6f6f;fill-opacity:1"/><path style="display:inline;fill:#6f6f6f;fill-opacity:1" id="path4311" d="m 27.622386,52.545739 c 0.1,0 -0.0054,0.197395 -0.12579,0.411341 -0.101734,0.180862 -0.218599,0.397537 -0.218599,0.397537 -1.8,2.2 -3.645561,4.5 -5.445561,6.7 l -3.3,3.9 c -0.4,0.5 -0.5,0.5 -1.1,0.2 -0.4,-0.2 -0.8,-0.5 -1.2,-0.7 -0.5,-0.3 -0.5,-0.3 -0.1,-0.7 1.6,-1.3 3.2,-2.5 4.8,-3.8 0.6,-0.5 1.1,-0.9 1.7,-1.4 l 0.2,-0.2 c 0.3,-0.2 0.6,-0.5 1,-0.7 l 0,-0.1 c -2.7,0.6 -5.3,1.2 -8,1.7 l -5.400004,1.2 c -0.4999998,0.1 -0.8999998,0 -1.2999998,-0.2 -1,-0.6 -2.1,-1.3 -3.2,-1.9 -0.1,-0.1 -0.3,-0.2 -0.4,-0.4 0.7,-0.1 1.4,-0.1 2.2,-0.2 4.6999998,-0.3 9.4999998,-0.7 14.1999998,-1 0.9,-0.1 1.7,-0.2 2.6,-0.3 0.6,-0.1 1,-0.4 1.4,-1 z"/></g></g><g id="layer1" style="display:inline"><g id="g4376"><path style="fill:#444;fill-opacity:1" id="path4301" d="m 31.935084,34.754617 c -0.04602,-0.8 -0.348674,-1.6 -0.602652,-2.4 -0.1,-0.5 -0.4,-0.8 -0.8,-1 -1.9,-1 -3.7,-2 -5.6,-3.1 -2.6,-1.5 -5,-3.2 -7.2,-5.3 -1,-1 -1.8,-2 -2.3,-3.3 0,-0.1 -0.1,-0.2 -0.1,-0.3 -0.4,-1.4 0.2,-2.4 1.7,-2.6 1.2,-0.2 2.4,0.2 3.5,0.6 2.7,1 4.9,2.6 7,4.5 3.7,3.4 6.3,7.7 7.9,12.4 1.1,3.1 1.9,6.4 2.8,9.5 1.1,3.7 2.4,7.2 4.4,10.5 3,4.7 7,8.3 12,10.9 0.5,0.3 1,0.5 1.6,0.8 -0.2,0.2 -0.3,0.3 -0.5,0.4 -1.3,0.8 -2.7,1.6 -4,2.4 -0.4,0.2 -0.8,0.2 -1.2,0 -7.1,-4.7 -11.8,-11.1 -13.7,-19.4 -0.8,-3.5 -1.4,-7 -2.2,-10.6 -0.9,-4.3 -2.4,-8.3 -4.9,-12 -1.7,-2.5 -3.7,-4.6 -6.2,-6.3 -0.7,-0.5 -1.5,-0.8 -2.3,-1 -0.5,-0.1 -0.7,0.2 -0.5,0.6 0.2,0.4 0.4,0.8 0.7,1.1 1.6,1.7 3.5,3 5.4,4.2 0.7,0.4 1.4,0.8 2,1.2 0.4,0.3 0.8,0.6 1,1 1.9,3.4 3.1,7 3.6,10.8 0.4,3.5 0.6,6.9 0.9,10.4 0.3,4.6 1,9.1 3.1,13.3 1.7,3.5 4.1,6.6 7,9.2 0.3,0.3 0.7,0.6 1.1,1 -1.1,0.5 -1.9,1.3 -3.2,1.2 -2.2,0.1 -3.9,1 -5.8,1.1 -0.6,0 -1.2,-1.1 -1.5,-1.6 -2.5,-4.2 -3.8,-8.7 -4,-13.5 -0.1,-2.5 0.1,-5 0.4,-7.5 0.4,-3.9 0.853539,-7.78937 0.626125,-14.157516 -0.127415,-2.768147 0,0 -0.123473,-3.042484 z"/><path id="path4305" d="m 71.132432,53.554617 c -0.4,-0.4 -0.7,-0.7 -1.1,-1 -2.9,-2.8 -6.3,-5 -9.7,-7.1 -4.5,-2.6 -9.2,-4.8 -14,-6.9 -0.4,-0.2 -0.5,0 -0.5,0.3 0,0.3 -0.1,0.6 -0.1,0.9 -0.1,0 -0.1,0 -0.2,0 0,-0.3 -0.1,-0.7 -0.1,-1 -0.1,-3.2 0.1,-6.2 0.4,-9.2 0.4,-3.8 0.9,-7.6 0.7,-11.4 -0.1,-4.2 -1.1,-8.1 -3.1,-11.7000004 -0.1,-0.2 -0.2,-0.5 -0.3,-0.8 0,0 0.1,-0.1 0.1,-0.1 0.2,0.1 0.3,0.1 0.5,0.2 2.5,1.4 5,2.8 7.6,4.1 0.5,0.3000004 0.7,0.6000004 0.6,1.2000004 -0.2,2.9 -0.8,5.7 -1.6,8.5 -0.9,3.2 -1.9,6.4 -2.9,9.6 -0.1,0.2 -0.1,0.4 -0.1,0.6 0.1,-0.2 0.1,-0.3 0.2,-0.5 0.2,-0.5 0.3,-0.6 0.8,-0.4 1.6,0.5 3.2,1 4.8,1.5 5.2,1.7 10.4,3.4 15.7,5.1 0.6,0.2 1.3,0.5 1.9,0.7 0.3,0.1 0.4,0.3 0.4,0.6 0,1.4 0,2.9 0,4.3 0,0.4 -0.1,0.4 -0.5,0.2 -2,-0.9 -4,-2 -6,-2.8 -5.3,-2.1 -10.7,-4.2 -16,-6.2 -0.5,-0.2 -0.9,-0.3 -1.4,-0.5 -0.3,-0.1 -0.4,0 -0.5,0.3 -0.1,0.7 -0.3,1.4 -0.4,2.1 -0.1,0.4 0.2,0.5 0.5,0.7 1.7,0.7 3.5,1.5 5.2,2.2 4.4,1.9 8.9,3.7 13,6 1.8,1 3.6,2.2 5.5,3.2 0.6,0.3 0.8,0.8 0.8,1.5 0,1.7 0,3.4 0,5.2 -0.1,0.1 -0.1,0.3 -0.2,0.6 z" style="fill:#444;fill-opacity:1"/><path style="fill:#444;fill-opacity:1" id="path6118" d="m 28.832432,51.154617 c -0.9,-0.2 -1.8,-0.4 -2.6,-0.6 -7.1,-1.8 -14.1,-3.5 -21.1999998,-5.3 -0.5,-0.1 -0.6,-0.3 -0.6,-0.8 l 0,-3.7 0,-0.7 c 0.2,0 0.3,0.1 0.5,0.1 6.8999998,2.8 14.0999998,4.9 21.1999998,7.1 1.2,0.4 2.3,0.7 3.5,1.1 0.4,0.1 0.6,0 0.7,-0.4 z"/><path style="fill:#003087;fill-opacity:1" id="path6108" d="m 51.332432,23.454617 c -0.2,0.3 -0.4,0.6 -0.7,1"/><path style="fill:#444;fill-opacity:1" id="path4309" d="m 49.786092,25.919881 c -0.590343,0.844004 -1.158963,1.594017 -1.458963,1.794017 0.1,-0.2 0.305303,-0.759281 0.405303,-0.859281 1.4,-2.6 2.8,-5.3 4.2,-7.9 1,-1.9 2,-3.9 3,-5.8 0.2,-0.3 0.3,-0.5 0.7,-0.2 l 2.1,1.2 c 0.4,0.2 0.4,0.3 0.1,0.7 -1.9,2.1 -3.7,4.3 -5.6,6.4 0.435514,-0.444393 -0.2,0.2 -0.4,0.5 l -1.75,2.5 z"/><path style="fill:#444;fill-opacity:1" id="path6114" d="m 25.932432,54.454617 c -0.9,0 -1.6,-0.1 -2.4,-0.1 -4.3,-0.2 -8.7,-0.3 -13,-0.5 -1.8999998,-0.1 -3.7999998,-0.2 -5.5999998,-0.3 -0.4,0.1 -0.5,0 -0.5,-0.4 l 0,-3.4 c 0,-0.4 0.2,-0.4 0.5,-0.4 2.4,0.4 4.9,0.8 7.2999998,1.2 3.5,0.5 6.9,1 10.4,1.5 l 4.864218,0.685417 z"/><path style="fill:#444;fill-opacity:1" id="path6098" d="m 53.732432,21.054617 c 0.1,-0.1 0.2,-0.3 0.3,-0.4 l 6.3,-5.1 c 0.3,-0.3 0.6,-0.3 1,-0.1 0.4,0.2 0.7,0.4 1.1,0.7 l 0,0.2 c -2.177465,1.165372 -4.398739,2.425884 -6.1,3.5 z"/><path id="path4315" d="m 20.932432,57.854617 c 0.4,-0.2 0.9,-0.3 0.4,0.1 -0.5,0.4 -5.6,3.6 -5.9,3.8 -0.3,0.2 -1.1,0.3 -1.4,-0.1 -0.3,-0.4 -2.1,-0.9 -1.3,-1.2 0.8,-0.4 8,-2.6 8.2,-2.6 z" style="fill:#444;fill-opacity:1"/><path id="path4472" style="opacity:1;fill:#009cde;fill-opacity:1;stroke:none;stroke-width:2;stroke-linecap:round;stroke-linejoin:round;stroke-miterlimit:4;stroke-dasharray:none;stroke-opacity:1"/><path id="path4502" style="opacity:1;fill:#009cde;fill-opacity:1;stroke:none;stroke-width:2;stroke-linecap:round;stroke-linejoin:round;stroke-miterlimit:4;stroke-dasharray:none;stroke-opacity:1"/><path id="path4510" style="opacity:1;fill:#009cde;fill-opacity:1;stroke:none;stroke-width:2;stroke-linecap:round;stroke-linejoin:round;stroke-miterlimit:4;stroke-dasharray:none;stroke-opacity:1"/><path id="path4512" style="opacity:1;fill:#009cde;fill-opacity:1;stroke:none;stroke-width:2;stroke-linecap:round;stroke-linejoin:round;stroke-miterlimit:4;stroke-dasharray:none;stroke-opacity:1"/><path id="path6038" style="opacity:1;fill:#009cde;fill-opacity:1;stroke:none;stroke-width:2;stroke-linecap:round;stroke-linejoin:round;stroke-miterlimit:4;stroke-dasharray:none;stroke-opacity:1"/></g></g><g id="layer2" style="display:inline"><path style="display:inline;opacity:1;fill:none;fill-opacity:1;stroke:#646464;stroke-width:3.71700001;stroke-miterlimit:4;stroke-dasharray:none;stroke-opacity:1" id="path4246-3" d="M 71.806578,57.581221 38.699695,76.695488 5.5928133,57.58122 5.5928135,19.352686 38.699696,0.23841858 71.806578,19.352686 Z"/></g><g id="layer3" style="display:inline"><path style="opacity:1;fill:none;fill-opacity:1;stroke:#000;stroke-width:.99164832;stroke-miterlimit:4;stroke-dasharray:none;stroke-opacity:1" id="path4246" d="M 69.870587,56.514801 38.699692,74.511326 7.5287964,56.514801 l 1e-7,-35.99305 L 38.699692,2.5252266 69.870587,20.521752 Z"/></g></svg>